<?xml version="1.0" encoding="UTF-8"?>
<!DOCTYPE svg PUBLIC "-//W3C//DTD SVG 1.1//EN" "http://www.w3.org/Graphics/SVG/1.1/DTD/svg11.dtd">
<svg xmlns="http://www.w3.org/2000/svg" version="1.1" width="512px" height="512px" style="shape-rendering:geometricPrecision; text-rendering:geometricPrecision; image-rendering:optimizeQuality; fill-rule:evenodd; clip-rule:evenodd" xmlns:xlink="http://www.w3.org/1999/xlink">
<g><path style="opacity:0.955" fill="#fefffe" d="M 144.5,-0.5 C 155.833,-0.5 167.167,-0.5 178.5,-0.5C 199.649,3.74293 217.649,13.7429 232.5,29.5C 273.663,17.5155 314.83,17.5155 356,29.5C 365.425,19.7452 376.258,11.9119 388.5,6C 395.81,3.28079 403.143,1.11412 410.5,-0.5C 421.5,-0.5 432.5,-0.5 443.5,-0.5C 449.549,10.8122 453.716,22.8122 456,35.5C 457.266,57.4636 457.933,79.4636 458,101.5C 482.414,140.942 486.08,182.275 469,225.5C 450.267,264.232 421.101,292.065 381.5,309C 375.689,311.075 370.022,313.408 364.5,316C 378.385,328.929 387.218,344.762 391,363.5C 392.467,412.804 392.967,462.138 392.5,511.5C 326.833,511.5 261.167,511.5 195.5,511.5C 195.5,493.5 195.5,475.5 195.5,457.5C 182.496,457.667 169.496,457.5 156.5,457C 130.891,453.29 111.391,440.456 98,418.5C 91.9415,404.325 86.2749,389.992 81,375.5C 79.4571,373.622 77.6238,372.122 75.5,371C 45.1423,372.643 30.9756,358.476 33,328.5C 36.9304,316.236 45.0971,308.403 57.5,305C 64.8333,304.833 72.1667,304.667 79.5,304.5C 106.198,300.935 126.365,310.601 140,333.5C 145.139,345.916 150.472,358.249 156,370.5C 159.524,375.694 164.357,378.861 170.5,380C 178.827,380.5 187.16,380.666 195.5,380.5C 196.259,355.16 205.592,333.66 223.5,316C 184.129,302.416 152.629,278.583 129,244.5C 105.154,204.358 102.154,162.692 120,119.5C 122.826,113.178 126.159,107.178 130,101.5C 130.333,81.8333 130.667,62.1667 131,42.5C 133.195,27.4172 137.695,13.0839 144.5,-0.5 Z M 159.5,21.5 C 178.201,20.8989 194.534,26.7322 208.5,39C 214.043,44.8787 219.877,50.3787 226,55.5C 271.335,39.5001 316.668,39.5001 362,55.5C 369.488,48.6796 376.988,41.8462 384.5,35C 397.948,24.7645 412.781,20.9312 429,23.5C 432.266,32.5631 434.266,41.8964 435,51.5C 435.333,71.1667 435.667,90.8333 436,110.5C 458.277,142.509 462.611,176.842 449,213.5C 432.743,247.756 407.243,272.59 372.5,288C 355.27,294.743 337.604,300.076 319.5,304C 331.721,316.221 343.887,328.387 356,340.5C 361.716,347.965 365.716,356.298 368,365.5C 369.472,406.794 369.972,448.127 369.5,489.5C 319.167,489.5 268.833,489.5 218.5,489.5C 218.667,477.495 218.5,465.495 218,453.5C 215.833,443.333 209.667,437.167 199.5,435C 185.167,434.667 170.833,434.333 156.5,434C 138.148,430.244 124.648,420.077 116,403.5C 111.667,391.833 107.333,380.167 103,368.5C 98.2615,357.041 89.7615,350.207 77.5,348C 72.5,347.667 67.5,347.333 62.5,347C 55.5184,343.787 53.685,338.62 57,331.5C 58.9522,329.106 61.4522,327.606 64.5,327C 74.5,326.333 84.5,326.333 94.5,327C 103.025,328.345 110.192,332.178 116,338.5C 123.257,353.349 130.257,368.349 137,383.5C 143.734,393.226 152.901,399.392 164.5,402C 175.464,403.452 186.464,403.785 197.5,403C 206.829,401.924 213.329,397.09 217,388.5C 217.853,369.27 223.853,351.937 235,336.5C 246.471,326.03 257.637,315.197 268.5,304C 249.665,299.944 231.331,294.277 213.5,287C 179.699,271.532 154.865,247.032 139,213.5C 125.39,176.838 129.724,142.505 152,110.5C 152.333,91.1667 152.667,71.8333 153,52.5C 153.746,41.8526 155.912,31.5193 159.5,21.5 Z"/></g>
</svg>
