<svg xmlns="http://www.w3.org/2000/svg" width="50" height="50" viewBox="0 0 32 32"><g fill="#fff"><path d="M23.045 12.889c0 4.101-2.28 7.165-5.641 7.165-1.129 0-2.19-.61-2.554-1.303 0 0-.607 2.409-.735 2.874-.453 1.643-1.784 3.286-1.887 3.421-.072.094-.231.064-.249-.06-.029-.209-.368-2.282.032-3.973l1.344-5.696s-.333-.667-.333-1.654c0-1.55.898-2.706 2.016-2.706.951 0 1.41.713 1.41 1.569 0 .956-.608 2.385-.923 3.709-.262 1.109.556 2.014 1.65 2.014 1.98 0 3.314-2.544 3.314-5.559 0-2.291-1.543-4.006-4.35-4.006-3.17 0-5.147 2.365-5.147 5.007 0 .911.269 1.554.69 2.05.193.229.22.32.15.583-.051.193-.165.655-.214.839-.069.265-.284.359-.523.262-1.46-.596-2.141-2.196-2.141-3.994 0-2.969 2.505-6.53 7.471-6.53 3.993-.001 6.62 2.887 6.62 5.988z"/><path d="M16 1c8.271 0 15 6.729 15 15s-6.729 15-15 15S1 24.271 1 16 7.729 1 16 1m0-1C7.163 0 0 7.163 0 16s7.163 16 16 16 16-7.163 16-16S24.836 0 16 0z"/></g></svg>